<?xml version="1.0" encoding="utf-8"?>
<!-- Generator: Adobe Illustrator 27.0.0, SVG Export Plug-In . SVG Version: 6.00 Build 0)  -->
<svg version="1.1" id="Ebene_1" xmlns="http://www.w3.org/2000/svg" xmlns:xlink="http://www.w3.org/1999/xlink" x="0px" y="0px"
	 viewBox="0 0 124.3 124.6" style="enable-background:new 0 0 124.3 124.6;" xml:space="preserve">
<style type="text/css">
	.st0{fill:#C5FFA6;}
</style>
<path class="st0" d="M61.9,0.1c-34.2,0-62,27.8-62,62s27.8,62,62,62s62-27.8,62-62S96.2,0.1,61.9,0.1z M61.9,117.3
	c-30.5,0-55.2-24.7-55.2-55.2S31.4,7,61.9,7s55.2,24.7,55.2,55.2S92.4,117.3,61.9,117.3z"/>
<path class="st0" d="M61.9,11.9c-0.6,0-1.2,0-1.8,0v100.3c0.6,0,1.2,0.1,1.8,0.1c27.7,0,50.2-22.5,50.2-50.2
	C112.1,34.4,89.7,11.9,61.9,11.9z"/>
</svg>
