<?xml version="1.0" encoding="utf-8"?>
<!-- Generator: Adobe Illustrator 26.2.1, SVG Export Plug-In . SVG Version: 6.00 Build 0)  -->
<svg version="1.1" id="Ebene_1" xmlns="http://www.w3.org/2000/svg" xmlns:xlink="http://www.w3.org/1999/xlink" x="0px" y="0px"
	 viewBox="0 0 192 185.22" style="enable-background:new 0 0 192 185.22;" xml:space="preserve">
<path d="M96.12,32.69c-34.25,0-62.02,27.77-62.02,62.02s27.77,62.02,62.02,62.02s62.02-27.77,62.02-62.02S130.38,32.69,96.12,32.69z
	 M96.12,149.91c-30.48,0-55.19-24.71-55.19-55.19s24.71-55.19,55.19-55.19s55.19,24.71,55.19,55.19S126.6,149.91,96.12,149.91z"/>
<path d="M96.12,44.52c-0.61,0-1.21,0.02-1.82,0.05v100.31c0.6,0.02,1.21,0.05,1.82,0.05c27.72,0,50.2-22.48,50.2-50.2
	C146.32,66.99,123.85,44.52,96.12,44.52z"/>
</svg>
