<?xml version="1.0" encoding="utf-8"?>
<!-- Generator: Adobe Illustrator 27.0.0, SVG Export Plug-In . SVG Version: 6.00 Build 0)  -->
<svg version="1.1" xmlns="http://www.w3.org/2000/svg" xmlns:xlink="http://www.w3.org/1999/xlink" x="0px" y="0px"
	 viewBox="0 0 711 186" style="enable-background:new 0 0 711 186;" xml:space="preserve">
<style type="text/css">
	.st0{fill:#FFFFFF;}
	.st1{opacity:0.5;}
	.st2{opacity:0.6;}
	.st3{opacity:0.5;fill:#FFFFFF;}
	.st4{fill:#ADFF00;}
	.st5{fill:#0500FF;}
	.st6{fill:#00FFFF;}
	.st7{fill:none;stroke:#000000;stroke-width:2;stroke-miterlimit:10;}
	.st8{clip-path:url(#SVGID_00000156555180680801505870000004913942936193108631_);}
	.st9{opacity:0.5;fill:#0500FF;enable-background:new    ;}
	.st10{opacity:0.6;fill:#33FF00;enable-background:new    ;}
	.st11{opacity:0.5;fill:#ADFF00;enable-background:new    ;}
	.st12{clip-path:url(#SVGID_00000101093377150791161840000002467608795332925371_);}
</style>
<g id="Ebene_2">
</g>
<g id="Ebene_1">
	<g>
		<rect x="64.2" y="39.5" class="st4" width="16.3" height="135"/>
		<path d="M80.7,163.8c0,0.6,0.2,1.2,0.3,1.8c-0.1-1-0.1-2-0.2-3c-0.1,0-0.1,0-0.2-0.1C80.7,162.9,80.7,163.4,80.7,163.8z"/>
		<path class="st0" d="M464.7,146.9c-0.5-1.1-1.1-2.2-1.6-3.4C465.5,142.9,465.7,143.1,464.7,146.9z"/>
		<path class="st0" d="M662.6,115.5c0.7,0,1.4,0,2.1,0c1.7,0,2.4-0.7,2.2-2.4c-0.1-0.9-0.3-1.8-0.4-2.7"/>
		<path class="st0" d="M521.7,160.1h58.6v14h-79.5v-12.6L556,88.1h-54.4V73.9h75.9v12.1L521.7,160.1z"/>
		<g>
			<path class="st4" d="M215.2,152.8c3.2,3.5,6.8,6,11,7.5v-31.4h-19.6C206.8,138.8,209.7,146.8,215.2,152.8z"/>
			<path class="st4" d="M189.4,126.8v-3.1c0-9.9,1.9-18.8,5.7-26.6c3.8-7.8,9.1-13.9,15.9-18.3c2-1.3,4.1-2.4,6.2-3.3h-28v98h30
				c-6.5-2.2-12.1-5.8-17-10.9C193.7,153.6,189.4,141.7,189.4,126.8z"/>
			<path class="st4" d="M215.8,93.7c-4.7,5-7.6,12.1-8.7,21.1h19.1V87.1C222.3,88.3,218.8,90.5,215.8,93.7z"/>
			<path class="st4" d="M656.8,158.2c-3.5,2.1-7.8,3.3-12.6,3.6v14c15-0.9,26.3-7.3,34.1-19.2l-10.5-8.1
				C664.7,152.5,661,155.8,656.8,158.2z"/>
			<path class="st4" d="M668.8,85c-6.1-7.3-14.3-11.4-24.6-12.5v14.4c4.5,1,8.3,3.1,11.3,6.6c4.2,4.8,6.5,11.5,7,20.2v1.3h-18.3
				v14.1h35.4v-7.1C679.6,105.8,676,93.5,668.8,85z"/>
			<rect x="502.2" y="47.9" class="st4" width="75" height="14"/>
			<rect x="64" y="39.5" class="st4" width="16.3" height="135"/>
		</g>
		<path d="M80.5,163.8c0,0.6,0.2,1.2,0.3,1.8c-0.1-1-0.1-2-0.2-3c-0.1,0-0.1,0-0.2-0.1C80.5,162.9,80.5,163.4,80.5,163.8z"/>
		<g>
			<path class="st5" d="M449.2,173.5h14l-0.3-9.3C459.3,168.4,454.7,171.5,449.2,173.5z"/>
			<path class="st5" d="M462.4,146.8V75.5h-44.6v63.1c0,15.2,6.2,22.8,18.5,22.8C449.4,161.4,458.1,156.5,462.4,146.8z"/>
			<path class="st5" d="M409.2,166.6c-5.6-6.2-8.4-15.4-8.5-27.5V75.5H387v98h32.2C415.2,171.9,411.9,169.6,409.2,166.6z"/>
			<path class="st5" d="M619.4,152.8c5.5,6.1,12.5,9.1,21.1,9.1c1.3,0,2.5-0.1,3.7-0.2v-32.9h-33.4
				C611,138.8,613.9,146.8,619.4,152.8z"/>
			<path class="st5" d="M593.7,126.8v-3.1c0-9.9,1.9-18.8,5.7-26.6c3.8-7.8,9.1-13.9,15.9-18.3c2-1.3,4-2.3,6-3.2h-30.6H590h-12.5
				v10.6l-55.8,74h58.6v13.4h9.8h0.6h32.9c-6.5-2.2-12.3-5.8-17.1-10.9C597.9,153.6,593.7,141.7,593.7,126.8z"/>
			<path class="st5" d="M637.4,86.2c-6.9,0-12.7,2.5-17.4,7.5c-4.7,5-7.6,12.1-8.7,21.1h32.9V87C642.1,86.5,639.9,86.2,637.4,86.2z"
				/>
			<polygon class="st5" points="501.6,88.1 501.6,75.5 479.6,75.5 479.6,173.5 500.7,173.5 500.7,161.5 556,88.1 			"/>
			<path class="st5" d="M357.9,84.7c-6.8-8-16.1-12-27.9-12c-11.8,0-21.3,4.7-28.6,14c-7.3,9.3-10.9,21.7-10.9,37.1v1.3
				c0,15.3,3.7,27.7,11,37.2c7.3,9.5,16.8,14.3,28.4,14.3c12.2,0,21.7-4.2,28.6-12.6l0.8,10.7H375V32.5h-17.1V84.7z M357.9,147.4
				c-5,9.7-12.9,14.6-23.8,14.6c-8.3,0-14.7-3.2-19.4-9.6c-4.7-6.4-7-15.3-7-26.7c0-12.7,2.3-22.3,7-28.8c4.7-6.5,11.2-9.7,19.6-9.7
				c10.6,0,18.5,4.7,23.6,14.2V147.4z"/>
			<path class="st5" d="M257.7,113.3c-0.5-8.7-2.8-15.4-7-20.2c-4.2-4.8-9.9-7.2-17-7.2c-2.7,0-5.3,0.4-7.7,1.2v27.5h31.7V113.3z"/>
			<path class="st5" d="M264,84.7c7.2,8.6,10.8,20.9,10.8,36.8v7.1H226v31.1c3.3,1.3,6.8,1.9,10.7,1.9c6,0,11.2-1.2,15.4-3.7
				c4.2-2.5,7.9-5.7,11-9.8l10.5,8.1c-5.6,8.6-13.1,14.3-22.4,17.2h25.1v-98h-24.1C256.7,77.6,260.7,80.7,264,84.7z"/>
			<rect x="36.2" y="35.9" class="st5" width="14" height="14"/>
			<rect x="63.2" y="8.9" class="st5" width="14" height="14"/>
			<path class="st5" d="M97.7,54.2H125c9.4,0.1,16.5,2.3,21.5,6.8c4,3.6,6.4,8.4,7.2,14.5h18c-0.9-10.9-4.9-19.4-12.1-25.4
				c-8.2-6.9-19.8-10.4-35-10.4H79.9v35.8h17.9V54.2z"/>
			<polygon class="st5" points="97.3,119.6 97.3,173.5 157.9,173.5 129,119.6 			"/>
			<path class="st5" d="M97.3,105h27.3c8.8,0,15.8-2.3,21.1-6.9c5.2-4.6,7.8-10.7,7.8-18.4c0-1.5-0.1-3-0.2-4.3H97.3V105z"/>
			<path class="st5" d="M171.4,79.9c0,8.4-2.3,15.7-6.8,21.9c-4.5,6.2-10.8,10.9-18.9,14l31.6,57.2v0.5H189v-98h-17.8
				C171.3,76.9,171.4,78.4,171.4,79.9z"/>
		</g>
	</g>
</g>
</svg>
