<?xml version="1.0" encoding="utf-8"?>
<!-- Generator: Adobe Illustrator 27.0.0, SVG Export Plug-In . SVG Version: 6.00 Build 0)  -->
<svg version="1.1" xmlns="http://www.w3.org/2000/svg" xmlns:xlink="http://www.w3.org/1999/xlink" x="0px" y="0px"
	 viewBox="0 0 721 203" style="enable-background:new 0 0 721 203;" xml:space="preserve">
<style type="text/css">
	.st0{fill:#FFFFFF;}
	.st1{opacity:0.5;}
	.st2{opacity:0.6;}
	.st3{opacity:0.5;fill:#FFFFFF;}
	.st4{fill:#ADFF00;}
	.st5{fill:#0500FF;}
	.st6{fill:#00FFFF;}
	.st7{fill:none;stroke:#000000;stroke-width:2;stroke-miterlimit:10;}
	.st8{clip-path:url(#SVGID_00000067953268650585488860000013801359511012995511_);}
	.st9{opacity:0.5;fill:#0500FF;enable-background:new    ;}
	.st10{opacity:0.6;fill:#33FF00;enable-background:new    ;}
	.st11{opacity:0.5;fill:#ADFF00;enable-background:new    ;}
	.st12{clip-path:url(#SVGID_00000076581696999937802820000016831770269051687563_);}
	.st13{fill:#5A2075;}
</style>
<g id="Ebene_2">
</g>
<g id="Ebene_1">
	<rect x="71.4" y="55" class="st13" width="16.3" height="134.3"/>
	<path class="st13" d="M87.9,178.7c0,0.6,0.2,1.2,0.3,1.8c-0.1-1-0.1-2-0.2-3c-0.1,0-0.1,0-0.2-0.1
		C87.9,177.8,87.9,178.2,87.9,178.7z"/>
	<path class="st13" d="M471.8,161.7c-0.5-1.1-1.1-2.2-1.6-3.4C472.7,157.7,472.9,158,471.8,161.7z"/>
	<path class="st13" d="M669.8,130.4c0.7,0,1.4,0,2.1,0c1.7,0,2.4-0.7,2.2-2.4c-0.1-0.9-0.3-1.8-0.4-2.7"/>
	<path class="st0" d="M647.2,189.2c-13.6,0-24.6-4.5-33.1-13.4c-8.5-8.9-12.8-20.8-12.8-35.8v-3.1c0-9.9,1.9-18.8,5.7-26.6
		c3.8-7.8,9.1-13.9,15.9-18.3c6.8-4.4,14.2-6.6,22.2-6.6c13,0,23.1,4.3,30.4,12.9c7.2,8.6,10.8,20.9,10.8,36.8v7.1h-67.8
		c0.2,9.9,3.1,17.8,8.7,23.9c5.5,6.1,12.5,9.1,21.1,9.1c6,0,11.2-1.2,15.4-3.7c4.2-2.5,7.9-5.7,11-9.8l10.5,8.1
		C676.6,182.7,664,189.2,647.2,189.2z M645.1,99.4c-6.9,0-12.7,2.5-17.4,7.5c-4.7,5-7.6,12.1-8.7,21.1h50.2v-1.3
		c-0.5-8.7-2.8-15.4-7-20.2C657.9,101.8,652.2,99.4,645.1,99.4z"/>
	<rect x="509.4" y="62.8" class="st13" width="75" height="14"/>
	<path class="st13" d="M87.7,178.7c0,0.6,0.2,1.2,0.3,1.8c-0.1-1-0.1-2-0.2-3c-0.1,0-0.1,0-0.2-0.1
		C87.7,177.8,87.7,178.2,87.7,178.7z"/>
	<path class="st0" d="M365,99.6c-6.8-8-16.1-12-27.9-12c-11.8,0-21.3,4.7-28.6,14c-7.3,9.3-10.9,21.7-10.9,37.1v1.3
		c0,15.3,3.7,27.7,11,37.2c7.3,9.5,16.8,14.3,28.4,14.3c12.2,0,21.7-4.2,28.6-12.6l0.8,10.7h15.7V47.4H365V99.6z M365,162.2
		c-5,9.7-12.9,14.6-23.8,14.6c-8.3,0-14.7-3.2-19.4-9.6c-4.7-6.4-7-15.3-7-26.7c0-12.7,2.3-22.3,7-28.8c4.7-6.5,11.2-9.7,19.6-9.7
		c10.6,0,18.5,4.7,23.6,14.2V162.2z"/>
	<rect x="196" y="85" class="st13" width="44" height="103.6"/>
	<path class="st0" d="M136.9,134.8h-31.6v54.5H87.4V54.6H132c15.2,0,26.9,3.5,35,10.4c8.2,6.9,12.3,17,12.3,30.2
		c0,8.4-2.3,15.7-6.8,21.9c-4.5,6.2-10.8,10.9-18.9,14l31.6,57.2v1.1h-19.1L136.9,134.8z M105.2,120.3h27.3c8.8,0,15.8-2.3,21.1-6.9
		c5.2-4.6,7.8-10.7,7.8-18.4c0-8.3-2.5-14.7-7.4-19.2c-5-4.5-12.1-6.7-21.5-6.8h-27.2V120.3z"/>
	<path class="st0" d="M243,189.2c-13.6,0-24.6-4.5-33.1-13.4c-8.5-8.9-12.8-20.8-12.8-35.8v-3.1c0-9.9,1.9-18.8,5.7-26.6
		c3.8-7.8,9.1-13.9,15.9-18.3c6.8-4.4,14.2-6.6,22.2-6.6c13,0,23.1,4.3,30.4,12.9c7.2,8.6,10.8,20.9,10.8,36.8v7.1h-67.8
		c0.2,9.9,3.1,17.8,8.7,23.9c5.5,6.1,12.5,9.1,21.1,9.1c6,0,11.2-1.2,15.4-3.7c4.2-2.5,7.9-5.7,11-9.8l10.5,8.1
		C272.4,182.7,259.8,189.2,243,189.2z M240.9,99.4c-6.9,0-12.7,2.5-17.4,7.5c-4.7,5-7.6,12.1-8.7,21.1h50.2v-1.3
		c-0.5-8.7-2.8-15.4-7-20.2C253.7,101.8,248,99.4,240.9,99.4z"/>
	<path class="st0" d="M297.7,136.4c0-15.4,3.6-27.7,10.9-37.1c7.3-9.3,16.8-14,28.6-14c11.7,0,21,4,27.9,12V45.2h17.1v142.1h-15.7
		l-0.8-10.7c-6.8,8.4-16.4,12.6-28.6,12.6c-11.6,0-21.1-4.8-28.4-14.3c-7.3-9.5-11-21.9-11-37.2V136.4z M314.8,138.4
		c0,11.4,2.3,20.2,7,26.7c4.7,6.4,11.2,9.6,19.4,9.6c10.9,0,18.8-4.9,23.8-14.6v-46c-5.1-9.4-13-14.2-23.6-14.2
		c-8.4,0-14.9,3.2-19.6,9.7C317.2,116.1,314.8,125.7,314.8,138.4z"/>
	<path class="st0" d="M470.6,176.4c-6.7,7.8-16.4,11.8-29.3,11.8c-10.7,0-18.8-3.1-24.4-9.3c-5.6-6.2-8.4-15.4-8.5-27.5V86.2h17.1
		v64.7c0,15.2,6.2,22.8,18.5,22.8c13.1,0,21.8-4.9,26.1-14.6V86.2h17.1v100.1h-16.3L470.6,176.4z"/>
	<path class="st0" d="M529.3,173.4h58.6v14h-79.5v-12.6l55.2-73.4h-54.4V87.2h75.9v12.1L529.3,173.4z"/>
	<g>
		<path class="st13" d="M663.5,171.5c-4.2,2.5-9.3,3.7-15.4,3.7c-0.4,0-0.8,0-1.1,0V189h-4.3c1.5,0.1,3,0.2,4.5,0.2
			c16.8,0,29.4-6.4,37.8-19.3l-10.5-8.1C671.4,165.8,667.7,169,663.5,171.5z"/>
		<path class="st13" d="M675.4,98.2c-6.9-8.1-16.3-12.4-28.4-12.8v14.1c6.3,0.4,11.3,2.7,15.1,7.1c4.2,4.8,6.5,11.5,7,20.2v1.3H647
			v14.1h39.3V135C686.3,119.1,682.7,106.8,675.4,98.2z"/>
	</g>
</g>
</svg>
