<svg enable-background="new 0 0 721 203" viewBox="0 0 721 203" xmlns="http://www.w3.org/2000/svg"><path d="m71.4 55h16.3v134.3h-16.3z" fill="#adff00"/><path d="m87.9 178.7c0 .6.2 1.2.3 1.8-.1-1-.1-2-.2-3-.1 0-.1 0-.2-.1.1.4.1.8.1 1.3z" fill="#5a2075"/><path d="m471.8 161.7c-.5-1.1-1.1-2.2-1.6-3.4 2.5-.6 2.7-.3 1.6 3.4z" fill="#5a2075"/><path d="m669.8 130.4h2.1c1.7 0 2.4-.7 2.2-2.4-.1-.9-.3-1.8-.4-2.7" fill="#5a2075"/><path d="m647.2 189.2c-13.6 0-24.6-4.5-33.1-13.4s-12.8-20.8-12.8-35.8v-3.1c0-9.9 1.9-18.8 5.7-26.6s9.1-13.9 15.9-18.3 14.2-6.6 22.2-6.6c13 0 23.1 4.3 30.4 12.9 7.2 8.6 10.8 20.9 10.8 36.8v7.1h-67.8c.2 9.9 3.1 17.8 8.7 23.9 5.5 6.1 12.5 9.1 21.1 9.1 6 0 11.2-1.2 15.4-3.7s7.9-5.7 11-9.8l10.5 8.1c-8.6 12.9-21.2 19.4-38 19.4zm-2.1-89.8c-6.9 0-12.7 2.5-17.4 7.5s-7.6 12.1-8.7 21.1h50.2v-1.3c-.5-8.7-2.8-15.4-7-20.2-4.3-4.7-10-7.1-17.1-7.1z" fill="#0500ff"/><path d="m509.4 62.8h75v14h-75z" fill="#adff00"/><path d="m87.7 178.7c0 .6.2 1.2.3 1.8-.1-1-.1-2-.2-3-.1 0-.1 0-.2-.1.1.4.1.8.1 1.3z" fill="#5a2075"/><path d="m365 99.6c-6.8-8-16.1-12-27.9-12s-21.3 4.7-28.6 14-10.9 21.7-10.9 37.1v1.3c0 15.3 3.7 27.7 11 37.2s16.8 14.3 28.4 14.3c12.2 0 21.7-4.2 28.6-12.6l.8 10.7h15.7v-142.2h-17.1zm0 62.6c-5 9.7-12.9 14.6-23.8 14.6-8.3 0-14.7-3.2-19.4-9.6s-7-15.3-7-26.7c0-12.7 2.3-22.3 7-28.8s11.2-9.7 19.6-9.7c10.6 0 18.5 4.7 23.6 14.2z" fill="#fff"/><path d="m196 85h44v103.6h-44z" fill="#adff00"/><g fill="#0500ff"><path d="m136.9 134.8h-31.6v54.5h-17.9v-134.7h44.6c15.2 0 26.9 3.5 35 10.4 8.2 6.9 12.3 17 12.3 30.2 0 8.4-2.3 15.7-6.8 21.9s-10.8 10.9-18.9 14l31.6 57.2v1.1h-19.1zm-31.7-14.5h27.3c8.8 0 15.8-2.3 21.1-6.9 5.2-4.6 7.8-10.7 7.8-18.4 0-8.3-2.5-14.7-7.4-19.2-5-4.5-12.1-6.7-21.5-6.8h-27.2v51.3z"/><path d="m243 189.2c-13.6 0-24.6-4.5-33.1-13.4s-12.8-20.8-12.8-35.8v-3.1c0-9.9 1.9-18.8 5.7-26.6s9.1-13.9 15.9-18.3 14.2-6.6 22.2-6.6c13 0 23.1 4.3 30.4 12.9 7.2 8.6 10.8 20.9 10.8 36.8v7.1h-67.8c.2 9.9 3.1 17.8 8.7 23.9 5.5 6.1 12.5 9.1 21.1 9.1 6 0 11.2-1.2 15.4-3.7s7.9-5.7 11-9.8l10.5 8.1c-8.6 12.9-21.2 19.4-38 19.4zm-2.1-89.8c-6.9 0-12.7 2.5-17.4 7.5s-7.6 12.1-8.7 21.1h50.2v-1.3c-.5-8.7-2.8-15.4-7-20.2-4.3-4.7-10-7.1-17.1-7.1z"/><path d="m297.7 136.4c0-15.4 3.6-27.7 10.9-37.1 7.3-9.3 16.8-14 28.6-14 11.7 0 21 4 27.9 12v-52.1h17.1v142.1h-15.7l-.8-10.7c-6.8 8.4-16.4 12.6-28.6 12.6-11.6 0-21.1-4.8-28.4-14.3s-11-21.9-11-37.2zm17.1 2c0 11.4 2.3 20.2 7 26.7 4.7 6.4 11.2 9.6 19.4 9.6 10.9 0 18.8-4.9 23.8-14.6v-46c-5.1-9.4-13-14.2-23.6-14.2-8.4 0-14.9 3.2-19.6 9.7-4.6 6.5-7 16.1-7 28.8z"/><path d="m470.6 176.4c-6.7 7.8-16.4 11.8-29.3 11.8-10.7 0-18.8-3.1-24.4-9.3s-8.4-15.4-8.5-27.5v-65.2h17.1v64.7c0 15.2 6.2 22.8 18.5 22.8 13.1 0 21.8-4.9 26.1-14.6v-72.9h17.1v100.1h-16.3z"/><path d="m529.3 173.4h58.6v14h-79.5v-12.6l55.2-73.4h-54.4v-14.2h75.9v12.1z"/></g><path d="m663.5 171.5c-4.2 2.5-9.3 3.7-15.4 3.7-.4 0-.8 0-1.1 0v13.8h-4.3c1.5.1 3 .2 4.5.2 16.8 0 29.4-6.4 37.8-19.3l-10.5-8.1c-3.1 4-6.8 7.2-11 9.7z" fill="#adff00"/><path d="m675.4 98.2c-6.9-8.1-16.3-12.4-28.4-12.8v14.1c6.3.4 11.3 2.7 15.1 7.1 4.2 4.8 6.5 11.5 7 20.2v1.3h-22.1v14.1h39.3v-7.2c0-15.9-3.6-28.2-10.9-36.8z" fill="#adff00"/></svg>